<svg width="577" height="693" viewBox="0 0 577 693" fill="none" xmlns="http://www.w3.org/2000/svg">
<path d="M236.61 1.51361C136.947 13.9416 50.668 83.7296 16.73 179.569C1.434 222.828 0 237.168 0 343.284C0 427.173 0.478 441.513 4.541 462.067C21.749 550.975 73.612 620.285 151.765 658.764C197.653 681.469 238.044 689.117 299.945 686.488C351.33 684.576 387.897 675.255 425.42 654.94C482.541 623.631 530.102 566.749 552.09 503.414C565.474 464.457 566.908 450.834 568.103 359.297C568.82 301.937 568.342 265.609 566.43 249.357C551.851 123.882 468.679 29.7156 350.135 5.09857C327.43 0.318604 262.9 -1.59338 236.61 1.51361ZM352.525 15.6146C463.66 38.7976 544.203 131.291 557.109 250.791C561.172 287.119 558.543 442.469 553.524 463.979C536.077 539.025 498.076 596.146 439.76 634.386C387.658 668.802 326.474 682.186 252.384 675.972C213.905 672.387 189.527 666.412 160.847 652.789C81.977 615.505 28.441 544.522 13.145 456.331C7.887 426.934 7.887 259.634 13.145 230.237C22.705 174.789 46.127 128.423 84.367 88.2706C125.953 45.0116 182.118 17.5266 242.585 11.0736C270.787 7.96661 327.43 10.3566 352.525 15.6146Z" fill="#395E7C"/>
<path d="M224.421 31.6276C124.041 49.7916 46.3663 131.769 29.6363 237.646C26.5293 257.483 26.0513 278.037 26.7683 355.712C27.7243 448.683 27.9633 449.878 34.1773 473.539C59.9893 569.856 133.84 639.166 228.006 655.418C258.837 660.915 330.537 659.003 356.349 652.072C449.559 627.216 513.85 557.189 535.838 456.809C540.379 435.777 540.14 252.942 535.599 229.759C515.045 126.033 438.565 48.5966 340.097 31.3885C314.285 26.8475 249.516 27.0865 224.421 31.6276ZM353.959 41.6656C428.766 61.5026 488.277 115.278 515.284 187.456C530.819 228.803 531.775 238.363 531.775 343.284C531.775 425.739 531.297 440.318 527.473 458.004C507.158 551.931 442.867 621.48 353.959 644.902C330.537 651.116 268.636 653.506 237.805 649.443C149.614 637.732 75.0463 574.636 47.0833 487.879C35.1333 450.356 34.6553 446.054 34.6553 344.479C34.6553 242.426 35.3723 233.105 47.3223 197.494C59.9893 159.015 81.2603 125.794 111.135 97.5916C135.274 74.8865 162.52 58.3956 192.873 47.8796C224.899 36.8856 240.434 35.2126 291.58 36.1686C326.713 36.6465 339.619 37.8416 353.959 41.6656Z" fill="#395E7C"/>
<path d="M234.937 67.2387C152.96 82.0567 92.9706 138.7 70.2656 223.067C66.2026 237.646 65.7246 249.596 65.7246 343.284C65.7246 437.689 66.2026 448.683 70.2656 463.979C91.0586 540.937 144.834 596.146 218.685 616.222C244.497 623.153 319.782 623.87 344.16 617.417C382.161 607.14 411.08 591.366 436.892 566.988C457.446 547.39 469.635 530.421 483.019 502.697C501.183 464.457 502.378 455.853 503.573 358.341C505.007 247.445 502.378 224.74 482.78 183.871C469.635 156.147 457.446 139.178 436.653 119.58C405.822 90.1827 367.821 71.7797 326.713 66.2827C301.857 62.9367 256.447 63.4147 234.937 67.2387ZM336.99 75.6037C380.727 84.4467 425.659 112.41 451.71 146.826C467.006 166.902 483.019 199.884 490.189 226.174C495.686 246.011 495.925 248.879 495.925 343.284C495.686 435.299 495.447 441.035 490.667 458.482C468.679 536.396 422.313 585.63 350.135 607.618C330.059 613.593 325.518 614.071 284.41 614.071C246.17 614.071 237.566 613.354 221.075 609.052C164.432 593.517 119.5 555.994 93.2096 502.219C73.1336 460.872 72.8946 459.677 72.8946 343.284C72.8946 232.627 73.1336 230.237 87.7126 194.387C108.506 143.002 155.828 98.5477 207.452 81.5787C242.824 70.1067 297.794 67.4777 336.99 75.6037Z" fill="#395E7C"/>
<path d="M279.63 81.3397C279.63 89.2267 280.108 89.9437 286.8 89.9437H294.209L292.536 113.844L290.863 137.744H298.511H305.92L306.159 120.297C306.398 110.976 306.637 101.894 307.115 100.699C307.354 99.2647 307.832 96.3967 307.832 93.7677C308.31 90.1827 309.505 89.7047 315.48 90.6607C322.411 92.0947 322.65 91.8557 322.65 83.9687V75.6037H304.964C295.165 75.6037 285.605 74.8867 283.454 74.1697C280.347 72.9747 279.63 74.4087 279.63 81.3397Z" fill="#395E7C"/>
<path d="M246.887 79.9056C244.019 81.5786 237.327 141.568 239.717 143.958C240.195 144.675 243.541 144.436 247.126 143.48C251.667 142.524 253.34 140.373 253.34 136.31C253.34 132.247 254.774 130.574 257.881 130.574C260.51 130.574 264.095 129.857 266.007 129.14C268.158 128.423 270.07 129.857 271.026 133.681C272.221 138.461 273.416 139.178 279.63 138.222C283.693 137.744 286.8 136.31 286.322 135.354C285.844 134.398 279.869 121.014 272.699 105.718C262.183 83.2516 258.837 77.9936 254.774 77.9936C251.906 77.9936 248.56 78.9496 246.887 79.9056ZM260.032 116.712C254.296 120.297 253.34 118.624 253.579 105.957V93.5286L258.359 104.045C262.183 112.41 262.422 115.039 260.032 116.712Z" fill="#395E7C"/>
<path d="M324.084 109.303C319.065 125.077 315.48 138.461 315.958 138.939C316.436 139.417 319.304 140.373 322.65 141.329C328.625 142.763 328.864 142.046 337.468 113.366C346.55 83.4906 346.55 80.6226 336.751 80.3836C334.122 80.3836 330.537 88.2706 324.084 109.303Z" fill="#395E7C"/>
<path d="M357.544 89.4655C357.066 90.4215 353.242 99.5035 349.179 109.781C336.99 140.373 340.097 153.518 360.173 156.147C367.821 157.103 370.211 156.386 375.469 150.411C379.054 146.826 385.507 134.876 390.287 124.36L398.652 104.762L392.438 102.133C389.331 100.46 386.224 99.7425 385.746 99.9815C385.268 100.46 381.444 109.303 376.903 119.819C368.06 140.851 363.041 145.87 357.066 139.895C353.72 136.31 353.959 134.159 362.085 115.039C366.865 103.567 370.45 93.7675 369.972 93.5285C366.387 90.4215 358.5 88.0315 357.544 89.4655Z" fill="#395E7C"/>
<path d="M186.659 98.5475C179.489 101.655 173.036 105.001 172.558 105.479C171.363 106.674 193.112 156.864 196.219 160.21C197.414 161.644 200.521 161.405 204.106 159.732L209.842 157.103L204.345 145.631C197.175 131.052 200.76 129.618 213.427 142.046C223.226 151.606 223.704 151.606 230.396 148.021L237.088 144.436L229.201 136.31C224.899 131.769 219.402 127.467 216.773 126.75C213.427 125.794 212.949 124.599 214.861 122.687C222.509 115.039 211.993 91.6165 201.238 92.5725C200.282 92.5725 193.59 95.2015 186.659 98.5475ZM203.15 111.215C205.062 115.039 204.584 116.712 200.282 119.58C195.263 123.165 194.785 122.926 191.917 117.907C187.854 110.737 188.093 109.542 193.112 108.347C200.043 106.435 200.521 106.674 203.15 111.215Z" fill="#395E7C"/>
<path d="M392.199 139.417L372.123 162.122L377.381 167.141C380.727 170.487 383.117 171.443 384.312 169.77C388.375 163.795 404.627 144.914 405.344 145.392C405.583 145.87 403.432 154.235 400.086 164.034L394.35 181.72L399.369 186.739L404.149 191.519L420.879 173.594C445.018 147.543 446.213 145.631 441.194 140.612C437.131 136.788 436.414 137.266 425.181 149.455C418.728 156.625 413.47 161.644 413.47 160.688C413.47 159.732 415.86 151.367 418.489 142.285C423.269 126.272 423.269 125.316 419.445 121.014C417.055 118.385 414.426 116.234 413.709 116.473C412.992 116.473 403.193 126.989 392.199 139.417Z" fill="#395E7C"/>
<path d="M137.425 133.681L123.324 146.348L136.469 160.688C143.639 168.575 152.96 178.852 157.262 183.871L164.91 192.953L179.011 180.525C192.873 168.336 193.112 167.858 189.527 162.361C187.615 159.493 185.225 156.864 184.508 156.864C183.791 156.864 179.25 160.688 174.47 165.229C165.866 173.594 165.866 173.833 161.325 168.814C157.023 164.034 157.262 163.795 165.866 156.147L174.948 148.499L169.929 143.958C164.91 139.417 164.671 139.417 156.784 147.065C149.614 153.996 148.658 154.235 145.551 150.65C142.683 147.065 143.4 145.631 151.765 138.461L161.086 130.335L156.306 125.555L151.526 120.775L137.425 133.681Z" fill="#395E7C"/>
<path d="M291.58 143.957C291.58 146.586 293.492 147.303 298.033 146.825C307.354 145.869 308.071 140.133 298.989 140.133C293.97 140.133 291.58 141.328 291.58 143.957Z" fill="#395E7C"/>
<path d="M427.81 179.807C415.382 188.172 404.149 195.342 403.193 195.82C400.803 196.537 420.162 228.563 422.791 228.563C425.181 228.324 432.59 222.11 432.59 220.198C432.59 219.003 429.722 214.462 426.137 209.921C420.162 202.034 420.162 201.556 424.225 198.449C430.678 193.669 431.634 194.147 437.37 203.468C443.106 212.789 444.062 213.267 450.037 208.726C453.861 206.097 453.622 205.141 447.886 196.537C442.867 189.128 442.15 186.977 444.779 185.304C450.037 181.958 450.993 182.675 456.729 191.996C459.597 197.015 462.465 201.317 462.704 201.795C463.421 202.99 473.22 196.537 473.22 194.625C473.22 191.279 455.295 164.272 452.905 164.272C451.71 164.272 440.238 171.203 427.81 179.807Z" fill="#395E7C"/>
<path d="M109.462 170.487C107.311 172.877 103.487 179.33 100.619 184.827L95.5996 194.865L124.28 208.727L152.721 222.589L155.35 217.092C158.696 209.444 158.935 209.683 146.985 204.425C136.469 199.645 136.23 199.645 140.054 193.909C145.312 185.783 142.683 176.94 133.123 171.204C123.563 165.229 114.242 164.99 109.462 170.487ZM128.104 184.349C129.06 186.261 128.821 189.607 128.104 191.519C126.909 194.865 125.953 194.865 119.261 191.519C113.286 188.412 112.569 186.978 114.959 184.11C118.544 179.808 126.431 179.808 128.104 184.349Z" fill="#395E7C"/>
<path d="M307.593 200.122C305.442 201.318 302.574 202.035 301.379 201.079C297.316 198.689 286.8 204.424 284.171 210.4C281.781 215.18 280.347 215.897 272.699 214.941C263.139 213.746 228.245 219.243 208.647 224.979C195.263 229.042 175.187 241.469 171.124 248.4C168.495 252.702 171.841 257.005 180.206 260.589C181.879 261.307 181.162 262.74 178.772 264.413C172.797 267.999 173.514 271.344 180.445 273.973C183.791 275.169 186.42 277.081 186.42 278.275C186.42 284.251 236.849 316.755 273.177 333.963C283.932 339.221 288.951 344.957 280.347 342.328C273.894 340.416 227.289 339.699 225.616 341.611C222.987 344.24 236.132 364.077 245.453 371.725C266.007 388.694 294.448 392.996 323.367 382.958C332.21 380.09 339.38 378.417 339.38 379.373C339.38 383.436 305.203 412.594 291.341 420.242C267.202 433.626 266.724 433.626 253.579 421.437C247.126 415.462 236.132 407.575 229.201 403.99C218.207 398.254 213.427 397.298 197.892 397.298C187.615 397.298 178.533 398.015 177.816 398.971C175.665 401.122 180.923 415.462 188.571 427.412L195.502 438.167L187.376 441.035C174.47 445.576 151.287 471.388 155.828 475.929C157.979 478.08 199.565 481.904 207.452 480.709C226.572 477.602 240.673 473.778 248.56 469.954C253.579 467.325 258.598 466.369 260.51 467.564C267.202 471.149 298.511 477.124 310.222 477.124C351.808 477.124 389.092 456.092 408.451 421.676L415.86 408.531L428.527 412.833C442.628 417.374 479.195 421.198 481.107 418.091C483.258 414.506 475.61 390.128 469.635 382.48C464.138 375.31 438.087 360.014 431.395 360.014C429.483 360.014 427.81 353.8 426.615 342.328C423.508 307.434 405.344 268.715 384.551 252.225C378.337 247.445 375.23 242.904 375.23 239.318C375.23 233.343 364.714 215.897 356.827 208.966C345.833 198.928 318.109 193.909 307.593 200.122ZM341.531 206.098C343.204 204.902 343.682 205.859 342.726 208.01C342.009 210.161 339.619 211.833 337.707 211.833C335.795 211.833 335.078 210.639 336.034 209.204C336.99 207.293 335.795 207.053 331.971 208.01C326.474 209.682 326.474 209.682 330.776 206.098C334.122 203.469 336.034 202.991 337.229 204.902C338.185 206.337 340.097 207.053 341.531 206.098ZM326.235 229.52C341.292 234.3 345.594 236.689 345.833 240.274C346.072 243.62 345.116 244.576 342.487 243.62C339.858 242.665 339.141 243.143 340.336 244.815C341.292 246.488 344.16 247.684 346.789 247.684C350.613 247.684 351.33 246.488 350.135 242.904C347.984 236.451 349.418 236.689 363.997 246.01C389.809 262.74 411.319 294.767 409.168 313.17C408.212 321.535 403.671 324.642 400.325 319.383C397.218 314.126 394.828 317.472 396.023 325.12C396.74 329.9 396.262 333.724 394.589 334.919C390.765 337.07 384.79 331.812 384.79 326.314C384.79 320.34 380.01 320.579 378.337 326.554C377.381 329.9 374.991 331.334 369.972 331.334C364.475 331.334 363.041 330.378 364.236 327.51C365.909 322.969 360.651 309.824 355.154 305.283C348.94 300.025 347.506 304.327 353.242 312.214C360.651 322.252 361.129 329.9 354.198 330.855C351.091 331.334 347.028 330.378 345.116 328.704C340.814 325.12 337.468 327.988 341.292 331.812C344.877 335.396 345.116 344.957 341.531 347.108C340.097 347.825 335.795 346.391 331.971 343.523C327.908 340.416 323.606 338.504 321.933 339.221C317.631 340.655 331.254 348.542 341.292 350.454C346.072 351.41 352.047 353.083 354.198 354.039C359.456 356.19 368.777 346.869 366.865 341.133C365.67 337.548 367.104 336.592 374.035 335.636C379.293 335.158 383.595 335.875 385.268 337.787C386.702 339.46 389.809 340.894 392.438 340.894C395.067 340.894 399.13 341.85 401.52 343.284C408.212 346.869 413.47 340.177 413.47 328.465C413.47 311.736 416.099 320.101 416.816 339.221L417.533 357.385L410.363 353.8C406.061 351.41 398.891 350.454 391.96 350.932C383.834 351.41 380.966 350.932 381.683 348.781C382.4 347.347 384.551 346.63 386.702 347.586C390.526 348.781 390.526 348.781 386.702 344.957C382.4 340.655 378.815 339.46 380.966 343.045C381.683 344.24 380.727 345.913 378.576 346.63C376.664 347.347 375.469 349.02 376.186 350.215C376.903 351.41 372.84 354.278 366.865 356.907C356.349 361.209 351.808 366.467 360.651 364.077C363.997 363.36 366.148 364.794 368.06 369.574C369.494 373.159 374.991 380.09 380.249 385.348C389.809 394.669 392.199 400.644 386.224 400.644C381.205 400.644 377.381 394.669 379.293 389.889C380.488 386.304 380.01 385.826 376.425 387.26C373.796 388.216 370.45 387.26 367.821 384.87C361.607 379.134 362.085 385.109 368.299 391.323C372.84 395.864 373.079 403.273 368.777 402.795C365.67 402.556 351.33 379.134 351.33 374.354C351.33 371.964 349.657 368.857 347.745 367.184C345.833 365.511 344.16 362.165 344.16 359.775C344.16 357.146 343.204 355.234 342.009 355.234C336.99 355.234 337.468 359.775 342.965 366.228C346.311 370.052 348.94 374.115 348.94 375.31C348.94 379.373 338.663 368.379 335.556 360.731C331.254 350.932 322.172 344.718 314.763 346.63C304.486 349.02 186.898 279.949 192.156 274.452C193.112 273.734 190.722 271.822 187.137 270.15C181.162 267.52 180.923 267.281 185.703 267.042C188.571 266.803 199.804 272.061 210.798 278.753C221.792 285.206 231.352 290.704 232.547 290.704C237.088 290.704 233.264 284.251 226.333 280.188C222.27 277.798 209.364 270.389 197.892 263.697C186.42 257.243 177.577 250.79 178.294 249.596C180.684 246.01 201.477 236.451 218.924 231.193C255.73 219.96 294.209 219.243 326.235 229.52ZM408.69 332.29C408.69 338.743 404.627 342.567 401.281 339.221C398.413 336.353 401.52 326.554 405.344 326.554C407.256 326.554 408.69 328.944 408.69 332.29ZM360.89 342.328C360.89 345.196 359.934 348.542 358.5 349.259C354.915 351.41 347.745 345.196 347.267 339.46C346.789 335.396 347.745 334.68 353.72 335.636C359.217 336.353 360.89 337.787 360.89 342.328ZM295.882 349.259C297.555 350.932 246.17 350.693 239.717 349.02C236.61 348.064 234.22 346.869 234.22 345.913C234.22 344.24 294.209 347.347 295.882 349.259ZM282.976 355.234C305.681 355.234 313.329 355.951 316.914 358.819C320.977 362.165 318.348 362.404 286.8 361.926C258.598 361.209 250.711 360.253 244.975 356.907L237.805 352.605L245.931 353.8C250.233 354.756 266.963 355.234 282.976 355.234ZM400.325 369.096C405.583 371.725 422.791 377.222 438.565 381.285C467.245 388.694 477.522 393.474 465.572 393.474C449.559 393.474 404.149 376.744 386.463 364.316C382.639 361.687 379.293 360.014 378.576 360.731C376.186 363.121 400.564 377.939 419.445 385.587C429.961 389.889 446.452 394.669 456.012 396.342C467.006 398.254 473.22 400.405 473.22 402.317C473.22 406.38 466.528 406.141 445.974 401.839C424.225 397.298 403.671 387.26 386.702 373.398C379.054 367.184 372.84 363.121 372.84 364.316C372.84 368.618 400.325 389.411 415.382 396.581C424.464 400.644 439.521 405.185 453.144 407.336C477.522 411.399 484.692 416.657 461.987 413.789C429.722 409.965 402.954 399.21 385.507 383.197C375.708 374.354 364.236 357.385 370.211 360.97C371.645 361.926 372.84 361.448 372.84 360.014C372.84 358.58 374.035 358.102 375.23 358.819C376.664 359.536 377.62 359.058 377.62 357.624C377.62 356.19 380.488 356.907 384.312 359.536C387.897 362.165 395.067 366.228 400.325 369.096ZM423.269 362.643C435.697 366.706 439.76 368.857 433.785 367.901C428.527 367.184 418.489 364.555 411.319 361.926C404.149 359.536 397.935 358.102 397.457 358.58C395.784 360.253 420.879 368.857 436.175 371.964C449.081 374.593 463.66 380.329 463.66 382.48C463.66 384.631 407.256 368.857 399.369 364.794C384.312 356.668 383.595 355.951 393.872 355.951C398.891 355.951 412.275 358.819 423.269 362.643ZM295.643 366.706C317.153 366.228 328.147 366.945 329.82 368.618C331.971 370.769 325.757 371.964 305.203 373.159C276.523 375.071 258.12 371.964 247.365 363.838C243.063 360.492 243.78 360.492 253.34 363.838C261.466 366.706 271.743 367.423 295.643 366.706ZM278.674 377.939C285.127 378.895 299.467 378.417 310.461 376.744C321.216 375.31 330.776 374.593 331.493 375.31C333.644 377.461 314.285 382.002 297.555 383.197C284.171 384.153 278.196 383.436 267.202 379.134C259.554 376.266 252.862 373.159 252.145 371.964C251.428 370.769 254.296 371.247 258.837 373.159C263.139 375.071 272.221 377.222 278.674 377.939ZM348.94 395.625C348.94 398.493 343.443 403.034 339.858 403.034C337.707 403.034 336.751 401.361 337.707 398.254C339.619 391.084 337.707 392.518 333.166 401.839C328.625 411.638 330.059 417.374 336.99 417.374C339.619 417.374 341.531 418.091 341.531 419.047C340.575 425.022 342.487 426.934 348.94 426.934C353.003 426.934 356.11 425.739 356.11 424.544C356.11 423.11 353.481 422.154 350.135 422.154C341.77 422.154 344.877 416.657 354.915 413.55C364.236 410.682 364.714 411.16 366.865 428.607C368.777 443.903 362.563 457.048 350.374 463.501C342.009 467.803 336.751 468.52 311.656 468.759C286.8 468.759 281.781 468.042 277.718 464.457C274.85 461.828 270.309 460.394 266.485 460.872C262.661 461.35 259.315 460.394 258.837 458.482C258.12 457.048 259.315 455.614 261.466 455.614C263.617 455.614 265.29 454.419 265.29 452.985C265.29 451.79 264.334 451.312 262.9 452.029C261.705 452.746 260.51 452.268 260.51 451.073C260.51 449.639 263.139 448.444 266.246 448.444C269.592 448.444 272.938 447.249 273.894 445.815C275.089 443.664 273.655 443.425 269.353 444.62C264.334 445.815 263.378 445.337 264.573 442.469C265.29 440.079 267.441 439.123 269.592 440.079C271.743 440.796 272.699 440.796 271.982 440.079C271.026 439.123 279.152 434.104 289.907 428.607C302.335 422.632 314.763 414.028 323.606 405.424C334.361 394.908 338.902 392.04 343.204 392.996C346.311 393.474 348.94 394.669 348.94 395.625ZM402.476 401.839C407.017 405.185 407.017 405.902 403.193 413.072L399.369 420.959L399.13 413.789C399.13 409.726 397.935 404.946 396.74 403.034C395.067 400.405 394.35 404.229 394.35 415.462C394.35 424.544 393.394 431.714 391.96 431.714C390.765 431.714 390.287 430.28 391.004 428.368C391.721 426.456 391.243 424.305 389.809 423.349C388.136 422.393 387.18 425.022 387.18 430.28C387.18 441.752 382.4 443.903 382.161 432.431L381.683 423.349L380.249 432.909C379.293 438.167 377.381 444.62 375.708 447.249C373.318 451.312 373.079 449.639 374.274 438.884C375.469 429.324 374.752 423.11 371.884 416.418C367.821 406.38 368.299 401.839 372.84 409.965C376.903 417.852 384.312 416.179 388.853 406.619C393.155 397.537 395.545 396.581 402.476 401.839ZM382.161 403.751C385.029 407.336 383.356 410.204 378.337 410.204C376.664 410.204 375.23 408.053 375.23 405.424C375.23 399.927 378.337 399.21 382.161 403.751ZM195.741 409.965C200.521 413.789 211.993 420.72 221.075 425.261C230.396 430.041 236.132 433.865 233.981 434.104C227.767 434.104 202.433 420.481 192.156 411.638C180.923 401.6 183.313 400.166 195.741 409.965ZM207.452 407.575C211.037 409.965 219.88 414.984 227.05 418.569C241.868 425.978 259.076 438.645 256.925 440.796C256.208 441.513 252.384 439.84 248.56 436.733C244.497 433.865 233.025 427.173 222.748 421.915C200.282 410.443 190.244 403.273 196.697 403.034C199.326 403.034 204.106 404.946 207.452 407.575ZM225.855 408.77C232.547 411.638 243.302 419.286 249.755 425.5C260.032 435.299 260.51 436.016 252.145 429.563C246.887 425.739 234.459 418.091 224.66 412.833C205.301 402.317 206.257 399.449 225.855 408.77ZM360.89 405.663C360.89 406.38 358.261 408.292 354.915 409.726C349.657 412.116 348.94 411.877 348.94 408.053C348.94 404.707 350.613 403.751 354.915 403.99C358.261 403.99 360.89 404.946 360.89 405.663ZM344.16 409.487C344.16 411.16 341.531 412.594 337.946 412.594C332.927 412.594 332.21 411.877 334.361 409.487C337.707 405.185 344.16 405.185 344.16 409.487ZM210.32 428.368C216.534 431.475 217.49 432.909 214.622 433.626C209.603 434.582 189.766 421.437 186.181 414.506C183.791 410.204 184.986 410.443 192.634 416.657C197.653 420.72 205.779 425.978 210.32 428.368ZM244.019 441.513C258.598 446.532 255.969 447.249 228.006 446.532C207.452 445.815 197.892 446.532 189.527 449.4C183.074 451.551 179.489 452.029 180.923 450.595C190.244 441.274 227.289 436.016 244.019 441.513ZM243.541 450.834C267.202 450.834 253.579 454.18 223.943 455.614C198.37 456.809 193.112 458.004 180.445 463.979C172.558 467.803 165.149 471.388 163.715 471.866C157.023 474.734 173.992 460.155 181.162 456.57C191.439 451.79 211.037 448.444 222.27 449.878C226.811 450.356 236.371 450.834 243.541 450.834ZM250.711 458.96C249.994 459.677 239.956 461.35 228.245 462.784C216.534 464.218 200.76 467.564 193.112 470.193C172.558 477.124 165.388 475.69 181.64 468.042C191.2 463.501 200.521 461.589 216.295 460.394C246.887 458.004 251.906 457.765 250.711 458.96ZM250.95 463.979C250.95 466.369 219.88 474.256 204.345 475.69C180.206 478.08 189.527 473.539 220.119 467.803C248.56 462.784 250.95 462.306 250.95 463.979Z" fill="#395E7C"/>
<path d="M260.51 245.294C260.51 246.489 261.705 247.684 262.9 247.684C264.334 247.684 265.29 251.269 265.29 255.81C265.29 268.477 275.089 278.754 287.039 278.754C296.121 278.754 305.92 272.54 305.92 266.804C305.92 265.37 308.071 264.414 310.461 264.414C315.958 264.414 319.065 260.59 315.48 258.439C312.851 256.766 265.29 242.904 262.422 242.904C261.227 242.904 260.51 243.86 260.51 245.294ZM277.957 254.854C278.674 257.483 278.196 260.351 277.001 261.068C273.416 263.219 279.391 268.955 287.756 271.345L295.165 273.496L288.234 273.735C278.913 273.974 270.07 265.609 270.07 256.766C270.07 248.879 276.045 247.445 277.957 254.854Z" fill="#395E7C"/>
<path d="M338.185 273.257C338.185 287.836 337.229 293.811 333.166 300.264C327.191 310.541 315.48 318.667 301.857 322.252C296.121 323.686 291.58 325.598 291.58 326.793C291.58 331.095 305.203 328.944 317.392 322.73C330.776 316.038 337.707 308.39 341.292 295.484C342.726 290.943 343.921 289.031 343.921 291.421C344.399 300.503 348.94 292.377 348.701 282.817C348.462 273.257 348.223 273.257 346.55 279.949C344.877 286.163 344.638 285.446 344.399 274.93C344.399 268.477 342.726 261.068 341.053 258.678C338.424 255.332 337.946 257.483 338.185 273.257Z" fill="#395E7C"/>
<path d="M363.28 260.351C363.28 261.307 364.953 264.892 367.104 267.999C369.494 271.584 370.211 275.647 369.255 278.993C367.821 283.056 366.387 283.773 359.934 282.578C353.003 281.383 352.764 281.383 357.305 284.729C359.934 286.88 363.519 287.597 365.67 286.88C367.582 285.924 372.601 284.968 376.425 284.968C386.224 284.729 389.57 282.1 389.57 274.691C389.57 271.106 388.853 269.194 387.897 270.15C385.985 271.823 385.746 272.779 385.029 278.993C385.029 280.427 382.4 281.144 379.532 280.666C376.186 280.188 374.274 278.037 374.035 274.452C373.557 269.433 363.28 255.81 363.28 260.351Z" fill="#395E7C"/>
<path d="M380.966 300.741C381.205 305.043 380.01 305.999 375.947 305.76C372.84 305.282 370.45 305.521 370.45 306.238C370.45 307.911 380.249 317.471 380.966 316.515C383.834 312.691 387.419 300.024 385.985 298.112C383.356 293.81 380.727 295.244 380.966 300.741Z" fill="#395E7C"/>
<path d="M394.35 298.591C394.35 300.503 395.067 302.415 395.784 303.132C397.457 305.044 406.3 302.415 406.3 300.025C406.3 298.83 404.627 298.591 402.715 299.308C400.803 300.264 399.13 299.547 399.13 298.113C399.13 296.679 398.174 295.484 396.74 295.484C395.545 295.484 394.35 296.918 394.35 298.591Z" fill="#395E7C"/>
<path d="M298.75 430.519C296.36 433.387 296.36 434.821 298.75 437.689C302.096 441.752 308.31 442.469 308.31 438.884C308.31 437.45 306.637 436.494 304.725 436.494C302.813 436.494 301.14 435.299 301.14 434.104C301.14 432.67 303.291 431.714 305.92 431.714C308.549 431.714 310.7 430.519 310.7 429.324C310.7 425.739 302.096 426.456 298.75 430.519Z" fill="#395E7C"/>
<path d="M319.782 437.211C316.436 441.752 314.285 446.532 315.241 447.966C317.153 451.312 338.902 458.721 342.487 457.048C344.16 456.57 342.965 455.853 339.858 455.853C336.751 455.614 335.078 454.658 335.795 453.224C336.512 451.79 335.556 450.834 333.644 450.834C328.864 450.834 328.864 448.683 333.883 443.186C337.468 439.123 337.468 438.884 330.776 438.884C324.562 438.645 324.323 438.406 328.147 435.538C332.927 431.714 333.405 429.324 329.342 429.324C327.669 429.324 323.367 432.909 319.782 437.211Z" fill="#395E7C"/>
<path d="M347.745 443.903C346.072 448.683 349.418 452.985 354.437 453.224C357.305 453.224 356.349 448.922 353.242 447.488C350.852 446.293 350.852 445.815 353.242 444.62C357.305 442.708 356.827 438.884 352.764 438.884C350.852 438.884 348.462 441.274 347.745 443.903Z" fill="#395E7C"/>
<path d="M285.127 448.683C276.523 454.18 275.089 459.199 281.542 461.111C283.693 461.589 287.517 463.023 289.907 463.979C293.014 465.413 293.731 464.696 292.536 461.828C291.819 459.677 292.297 458.004 293.731 458.004C298.272 458.004 296.599 453.224 292.297 453.224C288.234 452.985 288.234 452.985 292.297 449.878C296.599 446.532 297.555 443.664 294.687 443.664C293.492 443.664 289.19 446.054 285.127 448.683Z" fill="#395E7C"/>
<path d="M301.14 455.614C301.14 461.111 306.398 462.067 310.461 457.287C313.568 453.463 311.656 450.834 305.442 450.834C302.813 450.834 301.14 452.507 301.14 455.614Z" fill="#395E7C"/>
<path d="M88.6689 218.526C74.3289 232.866 81.9769 253.181 104.204 259.395C124.519 265.131 137.186 261.546 142.444 248.401C145.79 240.514 145.79 238.841 142.444 231.671C137.903 222.35 123.802 214.463 107.55 212.551C96.7949 211.356 95.3609 211.834 88.6689 218.526ZM118.783 229.759C129.538 234.3 131.928 237.646 128.821 243.382C126.192 248.162 116.393 249.118 105.877 245.294C96.5559 241.709 92.7319 236.212 95.8389 230.715C98.7069 225.218 107.072 224.979 118.783 229.759Z" fill="#395E7C"/>
<path d="M435.697 232.866C427.332 233.344 420.64 234.061 420.64 234.539C420.64 235.017 421.596 238.363 423.03 241.709C424.703 246.25 426.854 247.684 430.678 247.206C434.502 246.728 436.414 248.162 438.087 253.42C439.999 259.156 439.521 261.068 435.697 264.175C431.395 267.521 431.156 268.955 433.546 274.452L436.414 281.144L463.182 263.219C478 253.181 489.95 244.816 489.95 244.338C489.95 243.621 488.994 240.514 487.56 236.929C484.931 229.998 488.277 230.237 435.697 232.866ZM462.465 248.879C454.578 253.898 452.666 254.137 450.993 251.269C447.886 245.533 451.232 242.904 461.987 242.904L472.025 243.143L462.465 248.879Z" fill="#395E7C"/>
<path d="M83.6504 342.089V362.404H93.2104C100.141 362.404 102.77 361.448 102.77 358.819C102.77 356.668 100.619 355.234 96.7954 355.234C92.9714 355.234 90.8204 353.8 90.8204 351.649C90.8204 349.737 92.9714 348.064 95.6004 348.064C98.2294 348.064 100.38 346.391 100.38 344.479C100.38 342.328 98.2294 340.894 95.3614 340.894C91.7764 340.894 90.5814 339.699 91.2984 335.397C91.7764 331.095 93.2104 330.378 99.9024 330.856C106.355 331.573 107.55 330.856 107.55 326.793C107.55 322.491 106.116 321.774 95.6004 321.774H83.6504V342.089Z" fill="#395E7C"/>
<path d="M112.33 326.553C105.638 333.245 106.355 337.786 114.72 345.673C123.324 353.56 123.802 355.711 116.632 354.755C113.047 354.277 111.135 355.233 111.135 357.623C111.135 360.013 113.764 361.208 119.5 361.208C126.67 361.208 127.865 360.252 128.582 355.233C129.06 351.17 127.148 347.107 123.085 343.283C115.198 335.874 115.198 330.377 123.085 332.289C130.494 334.201 131.45 327.987 124.519 324.163C118.305 321.056 117.827 321.056 112.33 326.553Z" fill="#395E7C"/>
<path d="M131.45 326.554C131.45 329.422 133.123 331.334 135.274 331.334C138.62 331.334 139.098 333.485 138.142 346.869C136.708 363.36 137.186 365.272 142.444 363.121C144.834 362.165 145.79 357.624 145.79 346.63C145.79 334.68 146.507 331.334 149.375 331.334C151.287 331.334 152.96 329.183 152.96 326.554C152.96 322.491 151.287 321.774 142.205 321.774C133.123 321.774 131.45 322.491 131.45 326.554Z" fill="#395E7C"/>
<path d="M150.57 360.014C150.57 362.643 152.243 364.794 154.155 364.794C156.067 364.794 157.74 362.643 157.74 360.014C157.74 357.385 156.067 355.234 154.155 355.234C152.243 355.234 150.57 357.385 150.57 360.014Z" fill="#395E7C"/>
<path d="M84.8454 374.354C82.4554 378.178 85.5624 380.568 88.9084 377.222C90.5814 375.549 92.7324 374.354 93.6884 374.354C97.5124 374.354 95.3614 380.807 89.6254 386.304C86.2794 389.411 83.6504 392.757 83.6504 393.952C83.6504 396.581 99.9024 396.342 101.575 393.474C102.531 392.04 104.682 392.279 107.55 393.952C114.481 398.254 119.978 392.518 119.022 381.763C118.544 374.832 117.349 372.92 112.569 372.442C105.877 371.486 102.77 375.31 102.77 384.392C102.77 390.128 101.814 391.084 96.3174 391.084H89.6254L95.3614 386.543C102.531 381.046 101.336 373.398 92.7324 372.442C89.3864 371.964 85.8014 372.92 84.8454 374.354ZM114.72 384.153C114.72 391.084 111.613 393.474 108.745 388.455C106.355 384.87 109.701 373.876 112.33 375.549C113.764 376.266 114.72 380.09 114.72 384.153Z" fill="#395E7C"/>
<path d="M123.085 374.593C120.695 378.417 124.041 380.329 127.148 377.222C128.821 375.549 130.972 374.354 131.928 374.354C135.752 374.354 133.601 380.807 127.865 386.304C124.519 389.411 121.89 392.757 121.89 393.952C121.89 397.059 135.274 396.103 142.444 392.279C148.658 389.172 149.375 389.172 150.092 392.279C151.048 396.82 153.916 396.82 157.979 392.04C160.369 388.933 160.369 387.977 157.979 386.304C155.828 385.109 155.35 382.241 156.306 378.178C157.501 373.637 157.023 371.964 154.394 371.964C150.809 371.964 141.01 383.914 141.01 388.455C141.01 389.889 138.142 391.084 134.557 390.845H127.865L133.362 387.021C136.23 384.87 138.62 380.807 138.62 377.7C138.62 372.92 137.425 371.964 131.689 371.964C127.626 371.964 123.802 373.159 123.085 374.593Z" fill="#395E7C"/>
<path d="M448.604 430.997C439.044 441.752 429.962 474.256 426.616 510.584C425.66 520.383 423.747 529.943 422.314 531.616C418.012 536.874 416.578 530.66 418.49 515.842C421.358 494.81 415.144 493.615 408.691 514.169C404.15 528.031 396.979 541.654 394.112 541.654C392.199 541.654 391.961 536.635 392.917 524.685C394.59 509.15 394.35 507.955 390.288 508.672C387.181 509.15 385.747 512.257 384.79 520.622C383.117 534.484 381.206 536.874 379.294 527.314C376.426 513.691 367.583 519.666 357.305 541.654L351.331 554.799L352.764 543.805C353.721 536.396 353.243 532.094 351.331 530.899C346.312 527.792 343.922 533.528 341.532 552.648C338.424 577.504 328.865 593.039 324.085 580.85C322.173 576.07 322.173 551.214 324.085 535.44C325.518 523.251 325.758 523.012 334.6 521.578C342.965 520.383 351.092 514.408 348.463 511.779C347.745 511.062 342.727 512.257 336.991 514.169C331.255 516.081 326.475 517.515 325.997 517.276C325.758 516.798 326.236 512.018 327.191 506.521C329.342 495.527 327.43 490.03 321.934 492.181C319.783 492.898 317.87 498.395 316.915 506.76L315.242 520.144H301.857C292.536 520.144 289.19 520.861 289.908 523.012C290.624 525.163 294.688 525.88 302.096 525.402C308.072 524.924 313.09 525.641 313.09 526.597C313.09 533.05 288.234 565.554 283.215 565.554C281.542 565.554 277.718 563.642 274.85 561.252C270.787 558.145 269.831 555.516 271.026 551.692C273.177 545.239 286.8 537.113 286.8 542.371C286.8 544.044 285.605 546.673 284.171 548.107C282.259 550.019 282.498 551.214 284.41 552.409C288.951 555.277 292.059 550.019 291.102 541.415C290.385 533.767 289.908 533.289 281.542 533.528C266.246 534.006 256.208 547.151 260.988 560.296C263.378 566.749 263.139 568.661 257.403 577.265C247.365 592.561 245.453 590.171 247.365 564.837C248.799 545 248.56 542.132 244.258 536.874C239.717 531.377 239.478 531.377 233.264 535.201C229.918 537.352 225.377 542.61 223.465 546.434C221.314 550.497 219.402 553.604 218.685 553.604C218.207 553.604 218.446 548.346 219.163 542.132C220.119 532.572 219.641 530.182 216.534 528.987C212.232 527.314 207.93 535.201 207.93 545.239C207.93 548.107 206.257 551.214 204.345 552.17C201.477 553.126 200.76 551.453 200.76 543.805C200.76 532.572 195.502 521.339 188.571 517.754C182.835 514.408 176.86 516.32 176.86 521.1C176.86 523.251 175.187 523.968 172.08 523.251C167.778 522.056 167.3 523.251 167.3 533.767C167.3 545.956 162.759 555.516 158.218 552.648C156.545 551.692 156.067 544.522 157.023 531.138C158.696 507.955 157.023 499.829 150.57 496.244C146.507 494.093 144.595 494.81 139.576 499.829C132.406 506.999 131.45 507.238 131.45 500.785C131.45 493.854 127.148 486.684 123.085 486.684C120.695 486.684 119.5 484.294 119.5 479.753C119.5 471.388 113.764 465.413 111.374 471.388C108.506 478.558 109.94 507.238 113.047 511.779C116.154 515.603 116.632 515.125 119.261 504.848C122.607 490.986 126.67 490.508 126.67 504.37C126.67 524.685 130.972 527.792 138.62 512.974C141.249 507.716 145.073 503.414 146.746 503.414C149.614 503.414 149.853 507.477 148.897 525.402C147.702 545.717 148.18 548.107 152.96 554.082C159.174 562.208 160.847 562.208 167.3 555.516C169.929 552.648 172.08 551.453 172.08 552.648C172.08 557.428 181.879 565.554 187.376 565.554C190.483 565.554 194.307 563.881 195.98 561.969C200.521 556.472 208.647 557.189 206.735 562.925C205.54 566.988 210.559 575.114 214.622 575.114C215.578 575.114 218.207 570.334 220.597 564.359C225.616 552.648 233.264 541.654 236.849 541.654C238.044 541.654 238.283 550.497 237.566 562.447C236.132 581.089 236.61 584.196 240.673 589.215C247.126 597.102 254.296 594.234 262.423 579.894C268.158 570.095 269.592 568.661 273.416 570.812C277.24 572.963 277.001 573.919 270.07 581.089C260.51 590.888 261.705 596.624 273.177 596.624C284.649 596.624 292.775 587.542 290.863 576.548C289.908 570.095 290.624 567.466 294.449 563.881C297.316 561.491 302.574 554.799 306.398 549.063L313.09 538.308V557.906C313.09 591.366 322.173 602.838 335.557 586.825C338.902 582.762 342.727 580.133 343.922 580.85C346.79 582.762 350.374 577.743 352.286 569.139C356.35 551.931 372.841 522.056 372.841 531.855C372.841 533.289 375.47 537.113 378.815 540.698C382.161 544.283 384.79 548.107 384.79 549.063C384.79 550.258 386.703 551.214 389.092 551.214C393.634 551.214 401.281 544.283 405.823 535.679C408.452 530.899 408.452 530.899 408.691 535.918C408.691 538.786 410.363 542.61 412.514 544.283C415.861 547.151 417.056 546.673 421.836 540.698L427.094 534.006L428.767 540.459C433.308 558.862 451.472 529.465 460.076 489.552C463.183 474.973 457.208 481.904 452.906 497.917C447.409 518.471 440.717 534.484 437.371 534.484C432.591 534.484 434.742 511.54 440.717 498.395C448.842 480.709 459.359 442.947 458.403 435.06C457.447 426.934 453.862 425.5 448.604 430.997ZM449.321 459.677C443.824 479.992 437.132 499.112 435.937 497.917C434.503 496.483 444.062 454.18 448.365 443.664C454.818 427.89 455.296 437.45 449.321 459.677ZM192.156 527.792C196.219 533.289 197.414 551.214 194.068 551.214C190.722 551.214 182.357 540.698 180.923 534.962C178.055 522.773 185.464 518.232 192.156 527.792ZM188.332 552.648C191.439 555.038 191.678 556.233 189.527 558.623C184.747 563.642 176.86 554.56 176.86 544.283V535.679L180.445 542.61C182.596 546.434 185.942 550.975 188.332 552.648ZM284.41 580.85C284.41 584.913 275.328 591.844 270.309 591.844C267.919 591.844 269.115 589.454 273.656 584.674C281.303 576.787 284.41 575.592 284.41 580.85Z" fill="#395E7C"/>
<path fill-rule="evenodd" clip-rule="evenodd" d="M564.784 328.855C565.018 288.175 564.405 261.466 562.812 248.204C549.09 132.543 475.509 43.6392 368.948 11.793C487.648 40.7246 575.54 147.741 575.54 275.088V347.038L576.43 417.915C578.34 569.853 454.974 693.667 303.031 692.31L292.489 692.216C262.753 691.95 234.171 686.902 207.47 677.807C226.974 681.673 247.737 683.394 271.659 683.299C272.963 683.313 274.27 683.32 275.58 683.32C283.017 683.32 290.356 683.075 297.591 682.589C346.99 680.261 382.871 670.95 419.658 651.445C477.648 620.317 525.932 563.763 548.254 500.794C561.413 463.284 563.194 449.397 564.395 365.893C564.739 357.989 564.914 349.959 564.914 341.804C564.914 337.446 564.87 333.13 564.784 328.855Z" fill="#395E7C"/>
</svg>
